# xmcd
#
# Track frame offsets:
#   150
#   27986
#   44514
#   60334
#   74663
#   95970
#   125151
#   152942
#   190402
#   209637
#
# Disc length: 3142 seconds
#
# Revision: 0
# Processed by: cddbd v1.5.2PL0 Copyright (c) Steve Scherf et al.
# Submitted via: GXTranscoder 2.0.1939
#
DISCID=a20c440a
DTITLE=MICHEL POLNAREFF - ZE (re) TOUR 2007
DYEAR=2007
DGENRE=Blues
TTITLE0=le bal des laze
TTITLE1=la mouche
TTITLE2=dans la rue
TTITLE3=hollidays
TTITLE4=je t'aime
TTITLE5=y'a qu'un ch'veu
TTITLE6=goodbye Marylou
TTITLE7=hey you woman
TTITLE8=tout, tout pour ma chérie
TTITLE9=on ira tous au paradis
EXTD=
EXTT0=
EXTT1=
EXTT2=
EXTT3=
EXTT4=
EXTT5=
EXTT6=
EXTT7=
EXTT8=
EXTT9=
PLAYORDER=
